<svg xmlns="http://www.w3.org/2000/svg" viewBox="0 0 48 48" width="96" height="96"><path fill="#cfd8dc" d="M5,39V15h38v24c0,2.209-1.791,4-4,4H9C6.791,43,5,41.209,5,39"/><path fill="#f44336" d="M43,11v6H5v-6c0-2.209,1.791-4,4-4h30C41.209,7,43,8.791,43,11"/><path fill="#b71c1c" d="M36 11c0 1.656-1.343 3-3 3-1.657 0-3-1.344-3-3 0-1.656 1.343-3 3-3C34.657 8 36 9.344 36 11M18 11c0 1.656-1.343 3-3 3-1.657 0-3-1.344-3-3 0-1.656 1.343-3 3-3C16.657 8 18 9.344 18 11"/><path fill="#b0bec5" d="M33 4c-1.105 0-2 .897-2 2v5c0 1.104.895 2 2 2 1.103 0 2-.896 2-2V6C35 4.897 34.103 4 33 4M15 4c-1.105 0-2 .897-2 2v5c0 1.104.895 2 2 2 1.103 0 2-.896 2-2V6C17 4.897 16.103 4 15 4"/><path fill="#78909c" d="M17 23L17 37 25 30z"/><path fill="#78909c" d="M5 28H19V32H5z"/></svg>