<?xml version="1.0" encoding="UTF-8"?>
<svg xmlns="http://www.w3.org/2000/svg" xmlns:xlink="http://www.w3.org/1999/xlink" width="96pt" height="96pt" viewBox="0 0 96 96" version="1.1">
<g id="surface329959">
<path style=" stroke:none;fill-rule:nonzero;fill:rgb(13.72549%,52.941176%,79.215686%);fill-opacity:1;" d="M 4 58 L 92 58 L 92 78 L 4 78 Z M 4 58 "/>
<path style=" stroke:none;fill-rule:nonzero;fill:rgb(13.72549%,52.941176%,79.215686%);fill-opacity:1;" d="M 48 16 C 25.90625 16 8 33.910156 8 56 C 8 59.460938 8.484375 62.796875 9.308594 66 L 26.203125 66 C 24.800781 62.953125 24 59.574219 24 56 C 24 42.746094 34.746094 32 48 32 C 61.253906 32 72 42.746094 72 56 C 72 59.574219 71.199219 62.953125 69.796875 66 L 86.6875 66 C 87.515625 62.796875 88 59.460938 88 56 C 88 33.910156 70.089844 16 48 16 Z M 48 16 "/>
<path style=" stroke:none;fill-rule:nonzero;fill:rgb(100%,100%,100%);fill-opacity:1;" d="M 46 66 L 50 66 L 50 78 L 46 78 Z M 36 70 L 40 70 L 40 78 L 36 78 Z M 16 70 L 20 70 L 20 78 L 16 78 Z M 26 66 L 30 66 L 30 78 L 26 78 Z M 76 70 L 80 70 L 80 78 L 76 78 Z M 56 70 L 60 70 L 60 78 L 56 78 Z M 66 66 L 70 66 L 70 78 L 66 78 Z M 66 66 "/>
</g>
</svg>
